<?xml version="1.0" standalone="no"?>
<!DOCTYPE svg PUBLIC "-//W3C//DTD SVG 20010904//EN"
 "http://www.w3.org/TR/2001/REC-SVG-20010904/DTD/svg10.dtd">
<svg version="1.0" xmlns="http://www.w3.org/2000/svg"
 width="586.000000pt" height="582.000000pt" viewBox="0 0 586.000000 582.000000"
 preserveAspectRatio="xMidYMid meet">

<g transform="translate(0.000000,582.000000) scale(0.100000,-0.100000)"
fill="#000000" stroke="none">
<path d="M0 2910 l0 -2910 2930 0 2930 0 0 2910 0 2910 -2930 0 -2930 0 0
-2910z m2003 566 c36 -20 39 -20 51 -3 7 9 21 17 30 17 14 0 16 -17 16 -135 0
-125 -1 -135 -19 -135 -15 0 -19 10 -23 64 -12 149 -92 218 -194 170 -45 -21
-74 -78 -74 -141 0 -65 34 -134 129 -263 139 -188 184 -281 197 -404 12 -122
-57 -239 -157 -267 -45 -12 -74 -7 -147 22 -30 13 -34 12 -43 -4 -6 -9 -17
-17 -24 -17 -12 0 -15 24 -15 140 0 111 3 140 14 140 9 0 15 -20 19 -66 11
-117 57 -181 136 -191 27 -4 45 1 71 19 106 71 87 211 -55 395 -157 205 -201
309 -193 457 7 132 56 209 145 226 49 10 88 3 136 -24z m-486 -7 l48 -20 16
20 c10 12 24 21 33 21 14 0 16 -17 16 -122 0 -68 -4 -129 -9 -137 -15 -24 -28
-3 -35 58 -8 68 -34 114 -86 149 -62 42 -157 15 -185 -51 -16 -42 -26 -437
-16 -702 5 -165 10 -205 24 -226 32 -48 105 -63 170 -35 65 27 97 88 97 182 0
48 2 54 21 54 19 0 20 -4 14 -67 -9 -94 -20 -124 -58 -161 -38 -37 -81 -52
-150 -52 -93 0 -179 65 -208 159 -16 52 -24 561 -10 694 15 150 40 195 131
236 58 26 126 26 187 0z m915 -284 c48 -165 104 -356 123 -425 69 -235 63
-254 64 237 1 432 1 443 -19 455 -39 25 -24 38 45 38 50 0 65 -3 65 -14 0 -8
-9 -17 -20 -21 -19 -6 -20 -17 -22 -538 l-3 -532 -55 -3 c-30 -1 -60 1 -65 5
-6 5 -59 177 -119 383 -59 206 -116 402 -126 435 l-19 60 0 -418 c-1 -411 -1
-419 19 -424 11 -3 20 -13 20 -23 0 -15 -9 -18 -65 -18 -54 0 -65 3 -65 17 0
9 9 22 20 29 20 12 20 23 20 512 0 489 0 500 -20 512 -11 7 -20 19 -20 26 0
10 19 12 77 10 l78 -3 87 -300z m1070 128 l3 -177 63 3 c57 2 62 1 62 -18 0
-19 -6 -21 -65 -21 l-65 0 0 -294 c0 -189 4 -304 11 -325 11 -32 52 -61 88
-61 27 0 81 47 81 71 0 10 7 19 15 19 30 0 17 -51 -24 -90 -81 -77 -202 -56
-250 44 -20 40 -21 59 -21 339 l0 297 -55 0 c-49 0 -55 2 -55 21 0 16 6 20 28
19 15 -1 39 -2 55 -1 l27 1 0 145 c0 132 -2 147 -20 165 -33 33 -24 40 50 40
l70 0 2 -177z m-387 -182 c46 -21 101 -79 112 -119 5 -15 8 -128 8 -252 0
-211 -1 -227 -22 -265 -27 -51 -57 -79 -113 -104 -73 -33 -145 -23 -206 31
-70 62 -74 79 -74 340 0 206 3 238 19 274 19 42 65 85 111 103 40 16 122 12
165 -8z m922 4 c92 -39 116 -90 121 -263 l4 -133 -128 1 c-71 1 -142 1 -158 1
l-28 -1 4 -127 c4 -144 15 -175 74 -199 90 -38 194 40 194 146 0 34 3 40 21
40 20 0 21 -3 15 -52 -10 -72 -33 -115 -75 -143 -79 -53 -195 -38 -262 32 -63
66 -64 67 -67 315 -4 224 -3 229 21 281 24 52 59 86 108 106 37 15 116 13 156
-4z m457 -2 c38 -14 50 -15 53 -5 3 6 11 12 19 12 11 0 14 -20 14 -95 0 -88
-1 -95 -20 -95 -15 0 -20 7 -20 28 -1 38 -33 106 -61 126 -29 20 -91 21 -129
1 -38 -20 -55 -70 -40 -124 8 -30 25 -52 67 -88 108 -90 185 -168 210 -210 36
-62 42 -147 14 -199 -31 -59 -44 -72 -92 -94 -57 -25 -89 -25 -151 2 -46 20
-51 20 -60 5 -20 -36 -28 -14 -28 78 0 78 3 95 15 95 10 0 15 -10 15 -27 1
-39 33 -107 61 -127 48 -33 148 -14 183 36 43 60 7 130 -117 231 -125 102
-170 166 -175 252 -11 169 90 252 242 198z"/>
<path d="M2966 3087 c-36 -36 -46 -107 -46 -327 0 -216 10 -287 45 -328 25
-29 81 -36 110 -12 45 37 50 65 53 295 4 253 -1 311 -31 357 -19 27 -30 34
-65 36 -33 3 -47 -2 -66 -21z"/>
<path d="M3907 3099 c-37 -22 -51 -69 -55 -196 l-4 -123 107 0 108 0 -5 113
c-6 119 -26 190 -59 207 -23 13 -69 12 -92 -1z"/>
</g>
</svg>
